<?xml version="1.0" encoding="UTF-8" standalone="no"?>
<!-- Created with Inkscape (http://www.inkscape.org/) -->

<svg
   xmlns:dc="http://purl.org/dc/elements/1.1/"
   xmlns:cc="http://creativecommons.org/ns#"
   xmlns:rdf="http://www.w3.org/1999/02/22-rdf-syntax-ns#"
   xmlns:svg="http://www.w3.org/2000/svg"
   xmlns="http://www.w3.org/2000/svg"
   xmlns:sodipodi="http://sodipodi.sourceforge.net/DTD/sodipodi-0.dtd"
   xmlns:inkscape="http://www.inkscape.org/namespaces/inkscape"
   width="128"
   height="128"
   id="svg5612"
   version="1.1"
   inkscape:version="0.48.3.1 r9886"
   sodipodi:docname="copy.svg">
  <title
     id="title6891">Copy/Clone Icon</title>
  <defs
     id="defs5614" />
  <sodipodi:namedview
     id="base"
     pagecolor="#ffffff"
     bordercolor="#666666"
     borderopacity="1.0"
     inkscape:pageopacity="0.0"
     inkscape:pageshadow="2"
     inkscape:zoom="2.8"
     inkscape:cx="8.1326839"
     inkscape:cy="24.530997"
     inkscape:document-units="px"
     inkscape:current-layer="layer1"
     showgrid="false"
     inkscape:window-width="1280"
     inkscape:window-height="1009"
     inkscape:window-x="1280"
     inkscape:window-y="0"
     inkscape:window-maximized="1" />
  <metadata
     id="metadata5617">
    <rdf:RDF>
      <cc:Work
         rdf:about="">
        <dc:format>image/svg+xml</dc:format>
        <dc:type
           rdf:resource="http://purl.org/dc/dcmitype/StillImage" />
        <dc:title>Copy/Clone Icon</dc:title>
        <dc:creator>
          <cc:Agent>
            <dc:title>Benjamin Pavie</dc:title>
          </cc:Agent>
        </dc:creator>
        <cc:license
           rdf:resource="http://creativecommons.org/licenses/publicdomain/" />
        <dc:subject>
          <rdf:Bag>
            <rdf:li>copy</rdf:li>
            <rdf:li>clone</rdf:li>
            <rdf:li>icon</rdf:li>
            <rdf:li>gray</rdf:li>
          </rdf:Bag>
        </dc:subject>
      </cc:Work>
      <cc:License
         rdf:about="http://creativecommons.org/licenses/publicdomain/">
        <cc:permits
           rdf:resource="http://creativecommons.org/ns#Reproduction" />
        <cc:permits
           rdf:resource="http://creativecommons.org/ns#Distribution" />
        <cc:permits
           rdf:resource="http://creativecommons.org/ns#DerivativeWorks" />
      </cc:License>
    </rdf:RDF>
  </metadata>
  <g
     inkscape:label="Layer 1"
     inkscape:groupmode="layer"
     id="layer1"
     transform="translate(0,-924.36215)">
    <g
       id="g6783"
       transform="matrix(0.99829393,0,0,0.99829393,-101.01487,570.9661)">
      <path
         inkscape:connector-curvature="0"
         id="rect6587"
         d="m 134.9375,354 c -3.324,0 -6,2.676 -6,6 l 0,96 c 0,3.324 2.676,6 6,6 l 82,0 c 3.324,0 6,-2.676 6,-6 l 0,-62 -40,0 c -3.324,0 -6,-2.676 -6,-6 l 0,-34 -42,0 z"
         style="fill:#333333;fill-opacity:1;stroke:none" />
      <path
         inkscape:connector-curvature="0"
         id="rect6587-3-9-6-6"
         d="m 113.65625,374.21875 c -3.324,0 -6,2.676 -6,6 l 0,96 c 0,3.324 2.676,6 6,6 l 82,0 c 3.324,0 6,-2.676 6,-6 l 0,-7 -73,0 c -3.324,0 -6,-2.676 -6,-6 l 0,-89 -9,0 z"
         style="fill:#333333;fill-opacity:1;stroke:none" />
      <path
         sodipodi:nodetypes="csscc"
         inkscape:connector-curvature="0"
         id="rect6587-3-2-9-2"
         d="m 180.9375,354 0,30 c 0,3.324 2.676,6 6,6 l 36,0 z"
         style="fill:#333333;fill-opacity:1;stroke:none" />
    </g>
  </g>
</svg>
